PathFileType	4	(X/Y/Z)	7_2_41_p0_0-244_filt_butterworth.trc
DataRate	CameraRate	NumFrames	NumMarkers	Units	OrigDataRate	OrigDataStartFrame	OrigNumFrames
58.0	58.0	6	27	m	58.0	213	244
Frame#	Time	RHip			RKnee			RAnkle			RBigToe			RSmallToe			RHeel			LHip			LKnee			LAnkle			LBigToe			LSmallToe			LHeel			Neck			Head			Nose			RShoulder			RElbow			RWrist			RThumb			RIndex			RPinky			LShoulder			LElbow			LWrist			LThumb			LIndex			LPinky			
		X1	Y1	Z1	X2	Y2	Z2	X3	Y3	Z3	X4	Y4	Z4	X5	Y5	Z5	X6	Y6	Z6	X7	Y7	Z7	X8	Y8	Z8	X9	Y9	Z9	X10	Y10	Z10	X11	Y11	Z11	X12	Y12	Z12	X13	Y13	Z13	X14	Y14	Z14	X15	Y15	Z15	X16	Y16	Z16	X17	Y17	Z17	X18	Y18	Z18	X19	Y19	Z19	X20	Y20	Z20	X21	Y21	Z21	X22	Y22	Z22	X23	Y23	Z23	X24	Y24	Z24	X25	Y25	Z25	X26	Y26	Z26	X27	Y27	Z27	
213	3.672413793103448	0.3267004871627999	0.35784324610552376	1.258659416208474	0.32394273665159057	0.3133227360911084	1.6152535313421912	0.30235185900197187	0.3129762589755117	2.029625802859658	0.26248644230594803	0.11055201708778137	1.9995353242373464	0.34039841129677717	0.14316204952741127	2.0161761844315698	0.27878693530252524	0.3513374309859234	2.106992934778796	0.09371452035464334	0.3620530595212914	1.2611055131388464	0.11137520904925774	0.3171893890610042	1.6279827850826392	0.1359473412752486	0.3334975388236104	2.060489045242555	0.11711628720361084	0.08933276078575372	2.0080286415282904	0.06001812207557048	0.14389416045973394	2.0122582117671257	0.14138470732948166	0.3575645858723109	2.108104416988953	0.19809399125113786	0.3915561407792093	0.6088903725492453	0.20618288026697457	0.40025948470936196	0.3675864317561951	0.19367629710454315	0.308639446253253	0.48716726416036116	0.3720154869494506	0.37351939745515383	0.710944454873504	0.490337373250468	0.34789887370726835	0.9521862772061316	0.4460999941315105	0.24012396616968712	1.1648988359986212	0.3468458778274117	0.22147259876236583	1.256027513154522	0.36474261032769184	0.20481336676346465	1.2771705646241576	0.4212128952905918	0.2271173035544778	1.308087159806106	0.033469272120614714	0.39225374183441963	0.7170523615191482	-0.05346705127029285	0.36003040710686535	0.9655301148549364	-0.03879918286132587	0.2827456115416843	1.2069747408051206	0.03685638694082151	0.23477645989897572	1.2757866596036558	0.01725048374449919	0.20946921776171135	1.276422261025318	-0.04157214638707299	0.28180946956023734	1.3279216879731806
214	3.689655172413793	0.3268698172811492	0.3638365098809041	1.2646716595049063	0.3237271310908395	0.3139302852292404	1.6168932323089134	0.3021523276302657	0.31299661008068125	2.029151053831584	0.26308755471919737	0.10926398620735996	1.9975751967016557	0.34156545037478003	0.14508851256626618	2.0171556636604016	0.27919775462950186	0.35151847173718276	2.106829853161876	0.09342337355228199	0.3683559099344376	1.26636034615186	0.10993016872661819	0.3166426677269367	1.6259457275554587	0.13590256935169942	0.33355352456107057	2.060039045644619	0.11702691264701491	0.08844549636180063	2.0061298973243953	0.06000437525015989	0.1437965635781607	2.0114372970613767	0.14154094224307356	0.3577649301501121	2.108500908066831	0.19826910181548116	0.39148388026753306	0.6087413195649077	0.2047897497664069	0.39742497141261635	0.36684371115674463	0.19333918644100495	0.3086761305845898	0.4871689624979808	0.3719197810881203	0.37489975623816346	0.7120701651069632	0.48595152581321444	0.34706541245823075	0.9534079006401149	0.4421975513782044	0.23473732071813405	1.1680800801527114	0.3426730015096017	0.21582987084488856	1.261802087723528	0.3583515856011522	0.20057545267202148	1.2852560239148934	0.4174299852261217	0.23170526997771426	1.3183415873810338	0.033439652146075326	0.3916346502866511	0.7197929593321049	-0.051210643445703544	0.3553257907390582	0.9700674552696629	-0.03904217551476829	0.28300226935566186	1.2099803502583277	0.03731937662543716	0.2292217512726603	1.2758975346862844	0.019913890815681387	0.20731775843505845	1.2785133064688146	-0.03971543620495121	0.2771214839648969	1.331214973762134
215	3.706896551724138	0.326628285672198	0.3675346885587678	1.269137203341722	0.3235327441572996	0.31324893010509774	1.6169697611523501	0.3017785603622867	0.31275859912583515	2.0277081076306165	0.26430785795638545	0.10579303445052064	1.9942460599807204	0.34180061771398446	0.14477315228624477	2.0176718929014683	0.2791233160647749	0.3515529588339724	2.106780387057268	0.09464305431715873	0.37580004314666227	1.2709622191254784	0.10905374593191186	0.31713482247244135	1.6248084905668287	0.13596154693873072	0.3338769143015526	2.060050341924382	0.11737443235150573	0.08543813447266613	2.0025567790295975	0.059897986637929626	0.14349105604721032	2.008951342964418	0.14162984095313233	0.3581236638727955	2.1091360655779265	0.19835365504668875	0.39133179722050976	0.6085140449110071	0.2034836037567192	0.3940377051500997	0.36579840409274167	0.19334574518091524	0.3088546508157418	0.4871263886238238	0.3720592259184096	0.374873380652331	0.7123763123354138	0.48365853630446404	0.3448642252268493	0.9550734151904128	0.4373525644012413	0.22975285813508556	1.17021297332153	0.33928951879352726	0.21104951928461863	1.2669934518241959	0.35086559709272575	0.19831049368276848	1.2938715814401112	0.41390602645202873	0.23058933312303725	1.323637638619742	0.033435292790089444	0.39123272069889287	0.7224802126441785	-0.04975878975029712	0.35220909611359363	0.9737251742338136	-0.03870390005706192	0.28236511110828416	1.2128641351084015	0.038546385929861704	0.2203336268489794	1.275609293961769	0.02274762769651037	0.2071989443258475	1.282741296364478	-0.036530109576515306	0.26926707773954034	1.3333272133703813
216	3.724137931034482	0.32713588996013454	0.3694279158946281	1.2718515402112505	0.3236710870231368	0.3113713113481459	1.6154884899414865	0.301322344174497	0.3124527098405481	2.025737875596654	0.2658007259885726	0.10119256626352759	1.990627158108794	0.34110634052728095	0.142465389972894	2.0173136388409736	0.278799213658274	0.3514533029445694	2.107062042709883	0.09815776127489763	0.3857032161227797	1.2759630663948047	0.10910061876406289	0.3194247973857168	1.6248709624937794	0.13597824350427773	0.3339849336630513	2.0600673474069016	0.1179882302562599	0.0813572834423611	1.9984095144818592	0.05974219779790188	0.14307786010322504	2.0054065439073594	0.1416362109305126	0.3585320303285897	2.1098489031370304	0.19806759739863816	0.3902970903434282	0.608051897803399	0.20258305833502466	0.39156862118990904	0.36508259030521106	0.1933992542784745	0.30899444210143207	0.48704895352032984	0.3721875750263084	0.37453594139445445	0.7123382202968164	0.48153335810159986	0.34080777841454046	0.9571377282219803	0.4320717348377357	0.22590129149807292	1.1704923014212951	0.3359357959626714	0.2072486855233568	1.2714427102444417	0.3437468625353054	0.19615515125922495	1.30164795227083	0.41010512235274943	0.2184411279644426	1.3206351380450534	0.03342649184192395	0.3911733849207821	0.7242465612717807	-0.049307684191120076	0.3510895662703817	0.9762447974122737	-0.036298445865796614	0.2774207856283024	1.2127114236359438	0.04110309023026184	0.20906809342077698	1.2731023427015171	0.025573804132511122	0.206249302041578	1.286562525810798	-0.03264850821469638	0.25987122253115547	1.334711502812826
217	3.7413793103448274	0.3294308667016851	0.37194698060583187	1.2740326949050618	0.32437774142073506	0.30752127988509065	1.6119370427090745	0.3010177985247314	0.31225358422774746	2.024197994349204	0.2668990408809225	0.09778608071386453	1.9882636592072866	0.34026234336188	0.140064846939579	2.0156687829866957	0.27845594191909545	0.3513108900589505	2.1074560399747586	0.1030562583579129	0.39706269817584605	1.2812653226041975	0.10979227182148782	0.322988022847044	1.6255805292560557	0.13563272727068804	0.3328630452159269	2.059257607670219	0.11865803738408034	0.07802688370153936	1.9954835165666884	0.059568866058763464	0.1427637605724606	2.002991828543594	0.14156591143655262	0.35874006071965503	2.110286638530016	0.19720784420281645	0.38765847317153446	0.6072688561095266	0.20227647176601787	0.39052722905685405	0.3651553220720547	0.19340780120290252	0.3090582942113526	0.48699827538027646	0.37226085700577816	0.3743593159001377	0.712273141860265	0.4790861936230569	0.33597915849628884	0.9592579818756746	0.42671783139413577	0.22197484887396052	1.1687309311805292	0.3312944942775015	0.2032497519229861	1.2737416086912263	0.33781472886423974	0.1946709083441378	1.3071115172643932	0.4057321679413636	0.1952212709821883	1.3095130012184775	0.03338266325005267	0.3913423450159682	0.7249036283816662	-0.04950712093663274	0.3509424141105114	0.9780637648816557	-0.030807931225634032	0.26580473190263665	1.2080843514556459	0.04575340777383239	0.1946146345225423	1.2663788508487637	0.029178034212601033	0.19989362637857438	1.2866652823250078	-0.02816423842185305	0.24910246971601852	1.3348835820030707
218	3.7586206896551726	0.333054252983217	0.3758659229428302	1.2760510349114393	0.3254911844178605	0.30256080877990776	1.6072512822519551	0.30094999773328	0.3122046609203287	2.023510620979389	0.2673645573820361	0.0966040052782285	1.9875967609775287	0.3401152277420327	0.13965988498778453	2.0135396621976653	0.2782776147245472	0.35123811954440237	2.1071461814472614	0.10755013455951055	0.40585053194599946	1.2849780342295292	0.11059657897429778	0.3266044106186188	1.6263400086070385	0.13468416240522868	0.3297462465425311	2.057060275242046	0.11880892597132522	0.07623664071035657	1.9942235710220722	0.05936626679252643	0.14267336305664902	2.0026979924731303	0.141448627557396	0.35865914455862274	2.1103129476232496	0.1960434578487473	0.38413924282396295	0.6064490778584536	0.202343154218284	0.39021557236230453	0.36563218480395016	0.19338758225998642	0.30906946036149685	0.487009576123978	0.3722909578531951	0.3743475244230019	0.712225085003913	0.47729476477678473	0.33247006622461756	0.961472376336812	0.4205841235827653	0.21474555521981917	1.1652767396878319	0.32450736043165446	0.19659565338344687	1.272079940726789	0.33295100085916396	0.19364933516953287	1.3091268136680314	0.4000705336062752	0.1699216283486362	1.296159437201441	0.03330999913583455	0.3915110752597094	0.7249975192225369	-0.049865069000208456	0.3508078076391005	0.9794312823435958	-0.023007083125804597	0.2490420611543577	1.2002644124815571	0.05263076123337345	0.17611053667689028	1.2555203136844448	0.03510980468159983	0.18494571620601077	1.2811526934899098	-0.02213693541195136	0.23485798728739316	1.3322945057680156
